<?xml version="1.0" encoding="iso-8859-1"?>
<!-- Generator: Adobe Illustrator 19.0.0, SVG Export Plug-In . SVG Version: 6.00 Build 0)  -->
<svg version="1.1" id="Capa_1" xmlns="http://www.w3.org/2000/svg" xmlns:xlink="http://www.w3.org/1999/xlink" x="0px" y="0px"
	 viewBox="0 0 490 490" style="enable-background:new 0 0 490 490;" xml:space="preserve">
<g>
	<path d="M449.276,332.836h-34.239V299.45c31.315-0.8,58.633-22.213,66.795-52.652c10.143-37.857-12.403-76.904-50.259-87.051
		L130.368,79.04c-8.228-2.204-16.678-3.323-25.13-3.323c-43.733,0-82.187,29.537-93.515,71.825L0,191.276l59.054,15.822
		L48.17,263.705l29.841,2.755v32.456h20.752v-30.539l288.367,26.625l7.155,1.917v35.917H50.947
		c-22.455,0-40.724,18.269-40.724,40.723c0,22.454,18.269,40.724,40.724,40.724h398.329c22.454,0,40.724-18.27,40.724-40.724
		C490,351.105,471.73,332.836,449.276,332.836z M72.874,245.141l6.283-32.657l189.3,50.72L72.874,245.141z M25.413,176.603
		l6.353-23.69c8.907-33.235,39.122-56.444,73.472-56.444c6.638,0,13.284,0.881,19.759,2.614l301.207,80.708
		c26.801,7.183,42.76,34.836,35.586,61.632c-5.896,21.973-25.869,37.314-48.566,37.314c-4.387,0-8.784-0.583-13.071-1.728
		L25.413,176.603z M449.276,393.531H50.947c-11.014,0-19.972-8.957-19.972-19.972c0-11.015,8.958-19.971,19.972-19.971h398.329
		c11.014,0,19.972,8.957,19.972,19.971C469.248,384.574,460.29,393.531,449.276,393.531z"/>
	<path d="M440.411,226.117c0-19.75-16.01-35.76-35.76-35.76c-19.75,0-35.76,16.01-35.76,35.76c0,19.75,16.01,35.76,35.76,35.76
		C424.401,261.877,440.411,245.867,440.411,226.117z M389.163,226.117c0-8.554,6.934-15.488,15.488-15.488
		c8.554,0,15.488,6.934,15.488,15.488c0,8.554-6.934,15.488-15.488,15.488C396.097,241.605,389.163,234.671,389.163,226.117z"/>
</g>
<g>
</g>
<g>
</g>
<g>
</g>
<g>
</g>
<g>
</g>
<g>
</g>
<g>
</g>
<g>
</g>
<g>
</g>
<g>
</g>
<g>
</g>
<g>
</g>
<g>
</g>
<g>
</g>
<g>
</g>
</svg>
