<?xml version="1.0" encoding="iso-8859-1"?>
<!-- Generator: Adobe Illustrator 19.0.0, SVG Export Plug-In . SVG Version: 6.00 Build 0)  -->
<svg version="1.1" id="Capa_1" xmlns="http://www.w3.org/2000/svg" xmlns:xlink="http://www.w3.org/1999/xlink" x="0px" y="0px"
	 viewBox="0 0 60 60" style="enable-background:new 0 0 60 60;" xml:space="preserve">
<g>
	<g>
		<path d="M30,0c-0.061,0-0.121,0.004-0.182,0.005c-0.002,0-0.004,0-0.006,0c-0.01,0-0.019,0.001-0.029,0.001
			c-0.591,0.004-1.178,0.029-1.761,0.067c-0.11,0.007-0.219,0.017-0.329,0.025c-0.512,0.039-1.019,0.091-1.523,0.155
			c-0.104,0.013-0.208,0.025-0.312,0.04c-1.209,0.168-2.396,0.405-3.554,0.713c-0.026,0.007-0.054,0.012-0.08,0.019L21.87,1.118
			l-0.009,0.013C15.208,3.01,9.49,7.127,5.571,12.619l-0.025,0.003l-0.253,0.366c-0.048,0.07-0.089,0.144-0.137,0.214
			c-0.292,0.431-0.573,0.87-0.843,1.317c-0.128,0.212-0.248,0.428-0.37,0.643c-0.185,0.325-0.366,0.652-0.539,0.984
			c-0.104,0.199-0.208,0.398-0.308,0.6c-0.26,0.524-0.509,1.054-0.737,1.595c-0.006,0.015-0.012,0.031-0.018,0.046
			c-0.235,0.558-0.449,1.127-0.65,1.702c-0.042,0.121-0.083,0.243-0.124,0.365c-0.179,0.533-0.345,1.071-0.495,1.617
			c-0.016,0.057-0.033,0.114-0.049,0.171c-0.332,1.241-0.584,2.513-0.755,3.811c-0.012,0.091-0.024,0.181-0.035,0.272
			c-0.077,0.627-0.139,1.259-0.176,1.897c0,0.002,0,0.004-0.001,0.006v0.006C0.022,28.819,0,29.407,0,30
			c0,7.976,3.135,15.229,8.229,20.608l0.001,0.027l0.267,0.274c0.083,0.085,0.172,0.164,0.256,0.248
			c0.085,0.086,0.174,0.168,0.261,0.253c0.562,0.551,1.143,1.081,1.746,1.585c0.06,0.05,0.117,0.103,0.178,0.153
			c0.213,0.175,0.431,0.341,0.649,0.51c0.215,0.168,0.431,0.336,0.651,0.499c0.193,0.142,0.39,0.28,0.586,0.417
			c0.26,0.182,0.523,0.361,0.789,0.535c0.176,0.115,0.352,0.229,0.53,0.34c0.312,0.195,0.628,0.382,0.947,0.566
			c0.145,0.083,0.288,0.169,0.434,0.25c0.443,0.245,0.892,0.48,1.348,0.703c0.027,0.013,0.054,0.028,0.081,0.042
			c0.497,0.241,1.002,0.467,1.514,0.681c0.104,0.043,0.209,0.082,0.313,0.124c0.404,0.164,0.811,0.32,1.223,0.466
			c0.051,0.018,0.101,0.04,0.152,0.058l0.359,0.125l0.013-0.005C23.507,59.453,26.69,60,30,60c16.542,0,30-13.458,30-30
			S46.542,0,30,0z M57.598,28.659l-8.511-5.169l1.388-9.371l2.435,0.318C55.741,18.663,57.357,23.564,57.598,28.659z M29.949,10.78
			l-8.551-5.481l1.693-2.434l0,0c0.518-0.131,1.04-0.245,1.565-0.347c0.094-0.018,0.19-0.034,0.285-0.051
			c0.438-0.08,0.878-0.15,1.32-0.209c0.112-0.015,0.224-0.029,0.336-0.043c0.44-0.054,0.882-0.096,1.325-0.129
			c0.099-0.007,0.197-0.016,0.296-0.023c0.519-0.033,1.039-0.053,1.559-0.057c0.014,0,0.027-0.001,0.041-0.001
			c2.137,0.014,4.258,0.268,6.313,0.756l1.5,2.146L29.949,10.78z M2.086,27.919c0.037-0.505,0.088-1.008,0.152-1.508
			c0.011-0.085,0.021-0.17,0.032-0.254c0.158-1.146,0.386-2.28,0.683-3.393c0.018-0.068,0.039-0.135,0.058-0.203
			c0.128-0.467,0.27-0.929,0.423-1.388c0.042-0.126,0.084-0.252,0.128-0.377c0.15-0.431,0.312-0.857,0.483-1.281
			c0.041-0.101,0.078-0.204,0.12-0.304c0.203-0.486,0.422-0.966,0.653-1.441c0.086-0.177,0.18-0.35,0.269-0.525
			c0.15-0.292,0.304-0.582,0.464-0.869c0.124-0.221,0.25-0.441,0.379-0.659c0.141-0.238,0.289-0.471,0.438-0.705
			c0.112-0.175,0.221-0.352,0.336-0.524l2.822-0.369l1.388,9.371l-8.528,5.18l-0.311-0.594C2.077,28.023,2.082,27.971,2.086,27.919z
			 M10.042,46.004L20.296,46l3.235,9.045l-3.076,1.277c-0.475-0.172-0.945-0.358-1.41-0.557c-0.036-0.015-0.071-0.033-0.107-0.048
			c-0.41-0.177-0.815-0.363-1.216-0.56c-0.118-0.058-0.233-0.12-0.35-0.179c-0.314-0.159-0.626-0.322-0.935-0.494
			c-0.148-0.082-0.293-0.168-0.439-0.252c-0.269-0.156-0.537-0.315-0.801-0.48c-0.166-0.104-0.33-0.21-0.493-0.317
			c-0.232-0.151-0.461-0.307-0.688-0.465c-0.185-0.129-0.369-0.258-0.55-0.391c-0.189-0.138-0.374-0.281-0.559-0.424
			c-0.208-0.161-0.417-0.321-0.62-0.487c-0.129-0.105-0.253-0.215-0.38-0.322c-0.591-0.501-1.164-1.022-1.711-1.57L10.042,46.004z
			 M23.491,57.228l2.563-1.064l-4.187-11.706c0.327-0.035,0.632-0.222,0.79-0.538l0.447-0.895c0.247-0.494,0.047-1.095-0.447-1.342
			c-0.494-0.248-1.094-0.047-1.342,0.447l-0.447,0.895c-0.163,0.325-0.116,0.689,0.065,0.975L7.958,44.005l0.14,3.409
			c-3.574-4.486-5.803-10.086-6.067-16.19l10.048-6.102l0.445,0.191c0.129,0.055,0.263,0.082,0.395,0.082
			c0.388,0,0.757-0.228,0.919-0.606c0.218-0.507-0.018-1.096-0.524-1.313l-0.406-0.174l-1.693-11.42l-2.856,0.374
			c3.051-3.714,7.039-6.626,11.596-8.384l-1.385,1.99L29,12.547V13c0,0.552,0.447,1,1,1s1-0.448,1-1v-0.506l9.369-7.164l-1.26-1.801
			c4.948,1.708,9.274,4.759,12.532,8.725l-2.856-0.374L47.092,23.3l-0.406,0.174c-0.507,0.217-0.742,0.806-0.524,1.313
			c0.162,0.379,0.531,0.606,0.919,0.606c0.132,0,0.266-0.026,0.395-0.082l0.445-0.191l10.048,6.102
			c-0.264,6.104-2.493,11.704-6.067,16.19l0.14-3.409L40.066,44c0.181-0.286,0.228-0.65,0.065-0.975l-0.447-0.895
			c-0.247-0.495-0.848-0.695-1.342-0.447c-0.494,0.247-0.694,0.848-0.447,1.342l0.447,0.895c0.161,0.321,0.472,0.509,0.805,0.54
			l-5.275,11.673l2.638,1.095C34.419,57.728,32.241,58,30,58S25.581,57.728,23.491,57.228z M40.646,46l9.313,0.003l-0.139,3.394
			c-2.921,3.037-6.517,5.397-10.441,6.856l-2.835-1.177L40.646,46z"/>
		<path d="M36.553,40.342c0.176,0.351,0.528,0.553,0.896,0.553c0.15,0,0.303-0.034,0.446-0.105c0.494-0.247,0.694-0.848,0.447-1.342
			l-0.262-0.524l4.1-12.301L30.255,17.95C30.68,17.834,31,17.462,31,17v-1c0-0.552-0.447-1-1-1s-1,0.448-1,1v1
			c0,0.462,0.32,0.834,0.746,0.949l-11.954,8.693l4.892,12.753l-0.026,0.052c-0.247,0.494-0.047,1.095,0.447,1.342
			c0.144,0.072,0.296,0.105,0.446,0.105c0.367,0,0.72-0.202,0.896-0.553L24.618,40h11.764L36.553,40.342z M30,20.236l9.82,7.142
			L36.279,38H24.291l-4.083-10.642L30,20.236z"/>
		<path d="M16.99,25.051l-0.919-0.394c-0.509-0.218-1.097,0.017-1.313,0.525c-0.218,0.507,0.018,1.096,0.524,1.313l0.919,0.394
			c0.129,0.055,0.263,0.082,0.395,0.082c0.388,0,0.757-0.228,0.919-0.606C17.732,25.856,17.497,25.269,16.99,25.051z"/>
		<path d="M43.404,26.97c0.132,0,0.266-0.026,0.395-0.082l0.919-0.394c0.507-0.217,0.742-0.806,0.524-1.313
			c-0.218-0.509-0.806-0.744-1.313-0.525L43.01,25.05c-0.507,0.218-0.742,0.806-0.524,1.313
			C42.647,26.743,43.017,26.97,43.404,26.97z"/>
	</g>
</g>
<g>
</g>
<g>
</g>
<g>
</g>
<g>
</g>
<g>
</g>
<g>
</g>
<g>
</g>
<g>
</g>
<g>
</g>
<g>
</g>
<g>
</g>
<g>
</g>
<g>
</g>
<g>
</g>
<g>
</g>
</svg>
