<?xml version="1.0" encoding="iso-8859-1"?>
<!-- Generator: Adobe Illustrator 19.0.0, SVG Export Plug-In . SVG Version: 6.00 Build 0)  -->
<svg version="1.1" id="Capa_1" xmlns="http://www.w3.org/2000/svg" xmlns:xlink="http://www.w3.org/1999/xlink" x="0px" y="0px"
	 viewBox="0 0 490 490" style="enable-background:new 0 0 490 490;" xml:space="preserve">
<path d="M469.159,78.427h-20.958c-0.485-3.65-2.873-6.816-6.338-8.257c-62.557-25.908-133.573-26.471-196.537-1.722
	c-0.209,0.082-0.441,0.082-0.65,0C181.74,43.699,110.723,44.262,48.137,70.17c-3.465,1.441-5.853,4.607-6.338,8.257H20.846
	C9.352,78.427,0,87.774,0,99.268v319.588c0,11.496,9.352,20.842,20.846,20.842h448.314c11.489,0,20.841-9.346,20.841-20.842V99.268
	C490,87.774,480.648,78.427,469.159,78.427z M255.426,87.507c0-0.379,0.234-0.719,0.588-0.854
	c54.741-20.736,116.119-20.725,170.844-0.01c0.354,0.134,0.589,0.475,0.589,0.854v253.788c0,0.62-0.607,1.052-1.194,0.852
	c-54.624-18.694-114.999-18.694-169.633,0c-0.587,0.2-1.194-0.232-1.194-0.852V87.507z M62.553,87.507
	c0-0.379,0.235-0.719,0.588-0.854c54.741-20.736,116.124-20.725,170.844-0.01c0.354,0.134,0.589,0.474,0.589,0.854v253.788
	c0,0.62-0.607,1.052-1.194,0.852c-54.624-18.694-114.999-18.694-169.633,0c-0.587,0.2-1.194-0.232-1.194-0.852V87.507z
	 M20.851,418.855L20.846,99.279h20.856v258.389c0,3.482,1.736,6.729,4.632,8.663c2.887,1.936,6.562,2.291,9.784,0.968
	c58.929-24.395,125.993-24.385,184.89,0c0.007,0.003,0.022,0.017,0.05,0.027c3.941,1.465,7.896-0.013,7.931-0.027
	c58.929-24.395,125.992-24.385,184.89,0c1.282,0.529,2.642,0.794,3.991,0.794c2.031,0,4.053-0.591,5.794-1.762
	c2.891-1.934,4.632-5.182,4.632-8.663V99.277l20.851-0.009l0.021,319.579L20.851,418.855z"/>
<g>
</g>
<g>
</g>
<g>
</g>
<g>
</g>
<g>
</g>
<g>
</g>
<g>
</g>
<g>
</g>
<g>
</g>
<g>
</g>
<g>
</g>
<g>
</g>
<g>
</g>
<g>
</g>
<g>
</g>
</svg>
