<?xml version="1.0" encoding="iso-8859-1"?>
<!-- Generator: Adobe Illustrator 19.0.0, SVG Export Plug-In . SVG Version: 6.00 Build 0)  -->
<svg version="1.1" id="Capa_1" xmlns="http://www.w3.org/2000/svg" xmlns:xlink="http://www.w3.org/1999/xlink" x="0px" y="0px"
	 viewBox="0 0 512 512" style="enable-background:new 0 0 512 512;" xml:space="preserve">
<g>
	<g>
		<g>
			<path d="M494.933,93.867h-3.111l-9.698-20.688c-0.182-0.385-0.391-0.757-0.625-1.112c-4.742-7.128-12.739-11.408-21.3-11.4
				h-32.933c-8.561-0.008-16.558,4.272-21.3,11.4c-0.234,0.356-0.443,0.727-0.625,1.112l-9.697,20.688h-94.961l1.8-0.9
				c2.891-1.446,4.717-4.401,4.717-7.633V76.8c0-4.713-3.82-8.533-8.533-8.533s-8.533,3.82-8.533,8.533v3.258l-10.55,5.275h-47.167
				l-10.55-5.275V76.8c0-4.713-3.821-8.533-8.533-8.533c-4.713,0-8.533,3.82-8.533,8.533v8.533
				c-0.001,3.232,1.825,6.188,4.717,7.633l1.8,0.9H179.2V76.8c-0.009-9.422-7.645-17.057-17.067-17.067h-17.067
				C135.645,59.743,128.009,67.378,128,76.8v17.067h-11.644l-9.698-20.688c-0.179-0.387-0.388-0.759-0.625-1.112
				c-4.741-7.129-12.738-11.409-21.3-11.4H51.8c-8.562-0.009-16.559,4.271-21.3,11.4c-0.237,0.354-0.446,0.726-0.625,1.112
				l-9.697,20.688h-3.111C7.645,93.876,0.009,101.512,0,110.933V435.2c0.009,9.422,7.645,17.057,17.067,17.067h477.867
				c9.421-0.011,17.056-7.645,17.067-17.067V110.933C511.989,101.512,504.355,93.877,494.933,93.867z M420.475,81.1
				c1.612-2.124,4.126-3.37,6.792-3.367H460.2c2.666-0.003,5.18,1.243,6.792,3.367l5.983,12.767h-58.483L420.475,81.1z
				 M145.067,76.8h17.067v17.067h-17.067V76.8z M45.008,81.1c1.612-2.124,4.125-3.37,6.792-3.367h32.933
				c2.666-0.003,5.18,1.243,6.792,3.367l5.983,12.767H39.025L45.008,81.1z M17.067,204.8h117.622
				c-20.919,26.818-32.283,59.854-32.289,93.867c0,4.723,0.29,9.375,0.709,13.991c0.115,1.263,0.258,2.514,0.403,3.768
				c0.441,3.81,1.018,7.576,1.729,11.298c0.159,0.825,0.273,1.663,0.445,2.483c0.922,4.401,2.053,8.72,3.344,12.975
				c0.324,1.069,0.695,2.113,1.042,3.172c1.111,3.391,2.335,6.728,3.671,10.01c0.424,1.042,0.824,2.092,1.27,3.122
				c1.745,4.029,3.632,7.979,5.704,11.821c0.376,0.697,0.797,1.363,1.183,2.053c1.802,3.221,3.715,6.366,5.739,9.436
				c0.671,1.021,1.343,2.036,2.038,3.04c2.41,3.482,4.917,6.891,7.599,10.156c0.102,0.124,0.191,0.257,0.293,0.38
				c1.331,1.611,2.755,3.14,4.15,4.695H17.067V204.8z M17.067,435.2v-17.067h142.498c3.141,2.541,6.41,4.924,9.748,7.216
				c0.88,0.604,1.787,1.166,2.681,1.752c2.941,1.93,5.949,3.76,9.025,5.489c0.974,0.548,1.934,1.112,2.922,1.639
				c0.584,0.312,1.141,0.667,1.73,0.971H17.067z M200.27,423.3c-49.15-21.982-80.795-70.792-80.803-124.633
				c-0.014-35.94,14.192-70.426,39.517-95.928c0.396-0.328,0.76-0.692,1.088-1.088c25.502-25.325,59.988-39.531,95.928-39.517
				c3.652,0,7.262,0.248,10.865,0.531c1.936,0.153,3.865,0.349,5.787,0.586c2.208,0.267,4.399,0.602,6.582,0.974
				c2.162,0.373,4.319,0.766,6.455,1.242c1.781,0.394,3.537,0.863,5.296,1.327c2.427,0.644,4.852,1.293,7.236,2.069
				c1.326,0.43,2.622,0.939,3.933,1.41c2.677,0.964,5.354,1.929,7.966,3.058c0.809,0.35,1.586,0.768,2.389,1.134
				c8.418,3.853,16.423,8.552,23.89,14.026c1.818,1.332,3.664,2.612,5.422,4.039c1.358,1.098,2.633,2.307,3.951,3.46
				c2.345,2.055,4.711,4.079,6.934,6.309l0.004,0.004c10.093,10.048,18.509,21.651,24.927,34.365
				c3.433,6.557,6.269,13.41,8.475,20.475c16.365,51.294,1.061,107.416-39.077,143.302S249.419,445.282,200.27,423.3z
				 M264.533,145.067l51.2-0.003v12.052c-2.188-0.923-4.444-1.667-6.673-2.486c-2.057-0.763-4.102-1.543-6.192-2.219
				c-1.92-0.613-3.864-1.139-5.81-1.676c-3.089-0.868-6.194-1.662-9.341-2.34c-1.034-0.216-2.071-0.415-3.111-0.61
				C277.981,146.446,271.276,145.538,264.533,145.067z M332.8,165.767v-20.705l68.267-0.005v42.668l-38.858-0.005
				c-1.671-1.601-3.467-3.039-5.203-4.557c-1.491-1.307-2.939-2.672-4.471-3.916c-1.935-1.565-3.968-2.982-5.971-4.448
				C342.141,171.544,337.547,168.528,332.8,165.767z M494.933,435.2H326.329c0.589-0.305,1.146-0.659,1.731-0.971
				c0.987-0.527,1.947-1.091,2.922-1.639c3.077-1.729,6.085-3.559,9.025-5.489c0.894-0.586,1.801-1.148,2.681-1.752
				c3.337-2.292,6.607-4.674,9.748-7.216h142.498V435.2z M494.933,401.067H370.281c1.395-1.555,2.818-3.084,4.15-4.695
				c0.102-0.124,0.192-0.256,0.293-0.38c2.682-3.266,5.189-6.675,7.599-10.156c0.695-1.004,1.367-2.019,2.037-3.04
				c2.021-3.073,3.934-6.218,5.739-9.436c0.386-0.691,0.807-1.356,1.183-2.053c2.071-3.842,3.959-7.792,5.704-11.821
				c0.446-1.03,0.846-2.081,1.27-3.122c1.336-3.283,2.56-6.62,3.671-10.01c0.347-1.059,0.718-2.103,1.042-3.172
				c1.075-3.543,2.036-7.134,2.857-10.779c13.354,2.167,26.729-3.747,34.112-15.083c7.383-11.336,7.384-25.961,0.003-37.298
				c-7.381-11.337-20.755-17.254-34.11-15.089c-0.977-4.36-2.092-8.686-3.448-12.944c-2.501-7.974-5.702-15.711-9.567-23.121
				c-4.324-8.499-9.462-16.558-15.341-24.066h117.457V401.067z M408.562,281.707c0.35-0.021,0.684-0.107,1.038-0.107
				c9.426,0,17.067,7.641,17.067,17.067s-7.641,17.067-17.067,17.067c-0.338,0-0.656-0.083-0.991-0.102
				c0.109-0.988,0.192-1.98,0.282-2.974c0.419-4.616,0.709-9.268,0.709-13.991C409.564,292.999,409.218,287.337,408.562,281.707z
				 M418.133,187.728v-42.671l42.667-0.003v42.679L418.133,187.728z M494.933,187.733h-17.067v-42.667
				c-0.011-9.421-7.646-17.056-17.067-17.067H264.533c-4.563,0.018-8.93,1.856-12.133,5.105c-3.204,3.249-4.979,7.641-4.933,12.204
				l0.019,0.19c-36.482,1.984-71.048,16.967-97.437,42.235H17.067v-76.8l477.867,0.025V187.733z"/>
			<path d="M369.854,262.371c-1.941-6.203-4.43-12.221-7.438-17.983c-5.615-11.118-12.977-21.263-21.804-30.05
				c-40.248-40.376-103.417-46.687-150.857-15.07c-47.439,31.617-65.927,92.349-44.151,145.036s77.747,82.645,133.665,71.543
				s96.2-60.17,96.196-117.18C375.479,286.351,373.586,274.107,369.854,262.371z M324.278,375
				c-30.103,26.916-73.213,33.63-110.076,17.143c-36.863-16.486-60.597-53.095-60.602-93.477
				c-0.004-41.452,24.984-78.816,63.296-94.643c38.311-15.827,82.385-6.993,111.638,22.376c7.577,7.537,13.893,16.244,18.704,25.788
				c2.572,4.91,4.696,10.042,6.346,15.333C365.858,305.992,354.381,348.084,324.278,375z"/>
			<path d="M332.021,259.912c-4.015-7.947-9.276-15.199-15.583-21.483c-28.749-28.841-73.87-33.349-107.757-10.766
				c-33.886,22.583-47.093,65.964-31.538,103.599c15.554,37.634,55.534,59.034,95.476,51.104s68.716-42.978,68.715-83.7
				c0.008-8.797-1.344-17.542-4.008-25.925C335.939,268.317,334.164,264.024,332.021,259.912z M301.525,349.552
				c-20.069,17.946-48.809,22.423-73.386,11.433s-40.401-35.396-40.406-62.318c-0.002-27.635,16.658-52.544,42.199-63.095
				c25.541-10.551,54.924-4.663,74.426,14.916c5.056,5.037,9.271,10.852,12.483,17.225c1.707,3.262,3.119,6.67,4.217,10.183
				C329.244,303.543,321.594,331.606,301.525,349.552z"/>
			<path d="M298.667,290.133c-4.713,0-8.533,3.82-8.533,8.533c0.011,4.699-0.955,9.349-2.838,13.654
				c-1.235,2.797-0.88,6.04,0.931,8.503s4.801,3.769,7.839,3.424c3.038-0.345,5.659-2.288,6.872-5.094
				c2.826-6.46,4.277-13.437,4.263-20.487C307.2,293.954,303.38,290.133,298.667,290.133z"/>
			<path d="M292.263,262.529c-10.486-10.525-25.028-15.976-39.849-14.937s-28.46,8.465-37.376,20.35
				c-2.813,3.77-2.045,9.105,1.716,11.929c3.761,2.824,9.098,2.073,11.934-1.679c5.941-7.926,15.033-12.879,24.914-13.574
				s19.577,2.937,26.569,9.953h0c3.328,3.325,8.719,3.33,12.052,0.01S295.574,265.871,292.263,262.529z"/>
			<path d="M42.667,170.667h17.067c4.713,0,8.533-3.821,8.533-8.533c0-4.713-3.82-8.533-8.533-8.533H42.667
				c-4.713,0-8.533,3.821-8.533,8.533C34.133,166.846,37.954,170.667,42.667,170.667z"/>
			<path d="M93.867,170.667h42.667c4.713,0,8.533-3.821,8.533-8.533c0-4.713-3.82-8.533-8.533-8.533H93.867
				c-4.713,0-8.533,3.821-8.533,8.533C85.333,166.846,89.154,170.667,93.867,170.667z"/>
		</g>
	</g>
</g>
<g>
</g>
<g>
</g>
<g>
</g>
<g>
</g>
<g>
</g>
<g>
</g>
<g>
</g>
<g>
</g>
<g>
</g>
<g>
</g>
<g>
</g>
<g>
</g>
<g>
</g>
<g>
</g>
<g>
</g>
</svg>
