<?xml version="1.0" encoding="iso-8859-1"?>
<!-- Generator: Adobe Illustrator 19.0.0, SVG Export Plug-In . SVG Version: 6.00 Build 0)  -->
<svg version="1.1" id="Capa_1" xmlns="http://www.w3.org/2000/svg" xmlns:xlink="http://www.w3.org/1999/xlink" x="0px" y="0px"
	 viewBox="0 0 512.009 512.009" style="enable-background:new 0 0 512.009 512.009;" xml:space="preserve">
<g>
	<g>
		<g>
			<path d="M460.8,230.405c0-4.71-3.814-8.533-8.533-8.533c-29.7,0-55.495,16.958-68.267,41.685
				c-12.772-24.728-38.567-41.685-68.267-41.685c-4.719,0-8.533,3.823-8.533,8.533c0,39.458,29.919,72.054,68.267,76.315v29.089
				c-14.09-17.429-35.626-28.604-59.733-28.604c-4.719,0-8.533,3.823-8.533,8.533c0,39.458,29.919,72.054,68.267,76.315v26.086
				c0,4.71,3.814,8.533,8.533,8.533c4.719,0,8.533-3.823,8.533-8.533v-26.086c38.347-4.26,68.267-36.857,68.267-76.315
				c0-4.71-3.814-8.533-8.533-8.533c-24.107,0-45.643,11.175-59.733,28.604v-29.089C430.881,302.459,460.8,269.862,460.8,230.405z
				 M443.017,239.655c-3.985,25.549-24.218,45.781-49.766,49.766C397.235,263.872,417.468,243.64,443.017,239.655z M324.983,239.655
				c25.549,3.985,45.781,24.218,49.766,49.766C349.201,285.436,328.969,265.203,324.983,239.655z M324.983,324.988
				c25.549,3.985,45.781,24.218,49.766,49.766C349.201,370.769,328.969,350.537,324.983,324.988z M443.017,324.988
				c-3.985,25.549-24.218,45.781-49.766,49.766C397.235,349.206,417.468,328.973,443.017,324.988z"/>
			<path d="M484.895,158.417c-17.719-18.575-41.289-29.242-66.761-30.316v-17.163c4.719,0,8.533-3.823,8.533-8.533V34.138
				c0-14.114-11.486-25.6-25.6-25.6h-34.133c-14.114,0-25.6,11.486-25.6,25.6v68.267c0,4.71,3.814,8.533,8.533,8.533v17.182
				c-25.279,1.193-48.646,11.844-66.239,30.289c-18.705,19.618-28.297,45.329-26.991,72.55l15.147,231.876
				c1.084,22.784,19.806,40.636,42.615,40.636h139.708c22.81,0,41.532-17.852,42.607-40.482l15.181-232.183
				C513.183,203.738,503.591,178.027,484.895,158.417z M358.4,34.138c0-4.702,3.823-8.533,8.533-8.533h34.133
				c4.71,0,8.533,3.831,8.533,8.533v59.733h-51.2V34.138z M401.067,110.938v17.067h-34.133v-17.067H401.067z M494.853,229.841
				l-15.181,232.184c-0.649,13.67-11.878,24.38-25.566,24.38H314.399c-13.679,0-24.917-10.709-25.574-24.533l-15.147-231.876
				c-1.067-22.366,6.852-43.605,22.298-59.802c15.454-16.205,36.284-25.122,58.667-25.122h3.758h51.2h4.263
				c22.383,0,43.23,8.917,58.675,25.122C487.984,186.398,495.911,207.638,494.853,229.841z"/>
			<path d="M238.926,59.584c-0.002-0.117-0.011-0.232-0.018-0.348c-0.01-0.18-0.022-0.359-0.044-0.536
				c-0.012-0.101-0.03-0.2-0.046-0.3c-0.03-0.19-0.063-0.378-0.105-0.563c-0.02-0.089-0.045-0.177-0.068-0.266
				c-0.05-0.19-0.103-0.378-0.166-0.563c-0.03-0.088-0.063-0.173-0.095-0.26c-0.067-0.18-0.138-0.357-0.217-0.53
				c-0.041-0.091-0.085-0.179-0.129-0.269c-0.081-0.164-0.167-0.325-0.258-0.483c-0.053-0.092-0.109-0.183-0.166-0.274
				c-0.095-0.15-0.194-0.297-0.297-0.44c-0.064-0.088-0.129-0.176-0.196-0.262c-0.112-0.143-0.228-0.28-0.349-0.416
				c-0.043-0.048-0.08-0.101-0.124-0.148c-0.027-0.029-0.058-0.054-0.086-0.083c-0.13-0.136-0.267-0.266-0.406-0.394
				c-0.07-0.064-0.138-0.13-0.21-0.191c-0.155-0.132-0.316-0.256-0.48-0.378c-0.063-0.046-0.123-0.096-0.187-0.14
				c-0.188-0.131-0.383-0.252-0.581-0.368c-0.045-0.026-0.088-0.056-0.134-0.081c-0.231-0.129-0.468-0.247-0.711-0.354
				c-0.017-0.007-0.032-0.016-0.049-0.024c-1.026-0.446-2.155-0.698-3.344-0.706c-0.019,0-0.038-0.003-0.057-0.003H230.4H8.535
				H8.533c-1.516,0-2.937,0.399-4.17,1.091c-0.033,0.019-0.065,0.04-0.098,0.059c-0.209,0.121-0.413,0.248-0.61,0.386
				c-0.069,0.048-0.134,0.101-0.201,0.15c-0.154,0.115-0.307,0.231-0.453,0.355c-0.094,0.08-0.184,0.166-0.275,0.25
				c-0.109,0.102-0.218,0.203-0.321,0.31c-0.04,0.042-0.085,0.078-0.125,0.12c-0.063,0.068-0.116,0.142-0.176,0.211
				c-0.091,0.104-0.18,0.209-0.265,0.318c-0.085,0.108-0.167,0.219-0.247,0.331c-0.089,0.125-0.175,0.253-0.258,0.383
				c-0.066,0.105-0.131,0.21-0.192,0.317c-0.084,0.146-0.162,0.294-0.238,0.445c-0.05,0.1-0.099,0.199-0.145,0.3
				c-0.074,0.163-0.14,0.329-0.204,0.498c-0.036,0.097-0.074,0.193-0.107,0.292c-0.058,0.174-0.108,0.351-0.156,0.529
				c-0.026,0.099-0.054,0.198-0.077,0.298c-0.04,0.178-0.071,0.358-0.1,0.54c-0.017,0.105-0.035,0.209-0.048,0.315
				c-0.022,0.182-0.034,0.367-0.045,0.552c-0.006,0.104-0.014,0.208-0.016,0.313C0.007,59.625,0,59.68,0,59.738
				c0,0.158,0.015,0.313,0.024,0.469c0.003,0.052,0,0.103,0.004,0.154l0.013,0.183c0.003,0.028,0.003,0.057,0.006,0.085
				L24.364,393.05c0.552,7.584,4.26,14.281,9.769,18.845v65.976c0,14.114,11.486,25.6,25.6,25.6H179.2
				c14.114,0,25.6-11.486,25.6-25.6v-65.969c5.507-4.562,9.211-11.258,9.764-18.844l24.346-332.698
				c0.006-0.085,0.002-0.169,0.005-0.253c0.005-0.124,0.019-0.245,0.019-0.37C238.933,59.686,238.927,59.636,238.926,59.584z
				 M179.2,486.405H59.733c-4.71,0-8.533-3.831-8.533-8.533h42.667h51.2h42.667C187.733,482.573,183.91,486.405,179.2,486.405z
				 M136.533,460.805H102.4v-8.533h34.133V460.805z M187.733,460.805H153.6v-8.533c0-9.412-7.654-17.067-17.067-17.067H102.4
				c-9.412,0-17.067,7.654-17.067,17.067v8.533H51.2v-42.67c0.052,0,0.103,0.004,0.155,0.004H187.59
				c0.048,0,0.095-0.003,0.143-0.003V460.805z M197.548,391.821c-0.384,5.18-4.753,9.25-9.958,9.25H51.355
				c-5.205,0-9.591-4.07-9.975-9.267L17.717,68.271H221.22L197.548,391.821z"/>
			<path d="M119.5,290.138c28.723,0,51.226-41.233,51.226-93.867s-22.502-93.867-51.226-93.867
				c-28.715,0-51.217,41.233-51.217,93.867S90.785,290.138,119.5,290.138z M119.5,119.471c16.162,0,34.159,31.539,34.159,76.8
				s-17.997,76.8-34.159,76.8c-16.154,0-34.15-31.539-34.15-76.8S103.346,119.471,119.5,119.471z"/>
			<path d="M76.8,324.271h85.333c4.719,0,8.533-3.823,8.533-8.533s-3.814-8.533-8.533-8.533H76.8c-4.719,0-8.533,3.823-8.533,8.533
				S72.081,324.271,76.8,324.271z"/>
			<path d="M76.8,358.405h85.333c4.719,0,8.533-3.823,8.533-8.533s-3.814-8.533-8.533-8.533H76.8c-4.719,0-8.533,3.823-8.533,8.533
				S72.081,358.405,76.8,358.405z"/>
			<path d="M435.2,435.205H332.8c-4.719,0-8.533,3.823-8.533,8.533s3.814,8.533,8.533,8.533h102.4c4.719,0,8.533-3.823,8.533-8.533
				S439.919,435.205,435.2,435.205z"/>
		</g>
	</g>
</g>
<g>
</g>
<g>
</g>
<g>
</g>
<g>
</g>
<g>
</g>
<g>
</g>
<g>
</g>
<g>
</g>
<g>
</g>
<g>
</g>
<g>
</g>
<g>
</g>
<g>
</g>
<g>
</g>
<g>
</g>
</svg>
