<?xml version="1.0" encoding="iso-8859-1"?>
<!-- Generator: Adobe Illustrator 19.0.0, SVG Export Plug-In . SVG Version: 6.00 Build 0)  -->
<svg version="1.1" id="Layer_1" xmlns="http://www.w3.org/2000/svg" xmlns:xlink="http://www.w3.org/1999/xlink" x="0px" y="0px"
	 viewBox="0 0 512 512" style="enable-background:new 0 0 512 512;" xml:space="preserve">
<g transform="translate(1 1)">
	<g>
		<g>
			<path d="M255,238.787c42.667,0,76.8-34.987,76.8-76.8c0-41.813-34.133-76.8-76.8-76.8c-42.667,0-76.8,34.133-76.8,76.8
				C178.2,204.653,212.333,238.787,255,238.787z M255,101.4c33.28,0,59.733,27.307,59.733,59.733
				c0,32.427-27.307,59.733-59.733,59.733c-32.427,0-59.733-26.453-59.733-59.733C195.267,128.707,221.72,101.4,255,101.4z"/>
			<path d="M233.667,194.413c0.853,0,2.56,0.853,4.267,0.853s2.56,0,4.267-0.853l51.2-25.6c3.413-1.707,5.12-4.267,5.12-7.68
				s-2.56-5.973-5.12-7.68l-51.2-25.6c-2.56-1.707-5.973-1.707-8.533,0s-4.267,5.12-4.267,7.68v51.2
				C229.4,189.293,231.107,192.707,233.667,194.413z M246.467,149.187l23.893,11.947l-23.893,11.947V149.187z"/>
			<path d="M502.467,459.8H485.4v-59.733c0-11.491-6.963-20.833-17.067-24.224v-1.376c0-18.773-15.36-34.133-34.133-34.133
				c-18.773,0-34.133,15.36-34.133,34.133v1.376C389.963,379.233,383,388.576,383,400.067V459.8h-17.067v-59.733
				c0-11.491-6.963-20.833-17.067-24.224v-1.376c0-18.773-15.36-34.133-34.133-34.133c-18.773,0-34.133,15.36-34.133,34.133v1.376
				c-10.103,3.391-17.067,12.734-17.067,24.224V459.8h-17.067v-59.733c0-11.491-6.963-20.833-17.067-24.224v-1.376
				c0-18.773-15.36-34.133-34.133-34.133c-18.773,0-34.133,15.36-34.133,34.133v1.376c-10.103,3.391-17.067,12.734-17.067,24.224
				V459.8H127v-59.733c0-11.491-6.963-20.833-17.067-24.224v-1.376c0-18.773-15.36-34.133-34.133-34.133
				c-18.773,0-34.133,15.36-34.133,34.133v1.376C31.563,379.233,24.6,388.576,24.6,400.067V459.8H7.533
				c-5.12,0-8.533,3.413-8.533,8.533v34.133c0,5.12,3.413,8.533,8.533,8.533h494.933c5.12,0,8.533-3.413,8.533-8.533v-34.133
				C511,463.213,507.587,459.8,502.467,459.8z M434.2,357.4c9.387,0,17.067,7.68,17.067,17.067h-34.133
				C417.133,365.08,424.813,357.4,434.2,357.4z M400.067,400.067c0-5.12,3.413-8.533,8.533-8.533h51.2
				c5.12,0,8.533,3.413,8.533,8.533V459.8h-68.267V400.067z M314.733,357.4c9.387,0,17.067,7.68,17.067,17.067h-34.133
				C297.667,365.08,305.347,357.4,314.733,357.4z M280.6,400.067c0-5.12,3.413-8.533,8.533-8.533h51.2
				c5.12,0,8.533,3.413,8.533,8.533V459.8H280.6V400.067z M195.267,357.4c9.387,0,17.067,7.68,17.067,17.067H178.2
				C178.2,365.08,185.88,357.4,195.267,357.4z M161.133,400.067c0-5.12,3.413-8.533,8.533-8.533h51.2
				c5.12,0,8.533,3.413,8.533,8.533V459.8h-68.267V400.067z M75.8,357.4c9.387,0,17.067,7.68,17.067,17.067H58.733
				C58.733,365.08,66.413,357.4,75.8,357.4z M41.667,400.067c0-5.12,3.413-8.533,8.533-8.533h51.2c5.12,0,8.533,3.413,8.533,8.533
				V459.8H41.667V400.067z M493.933,493.933H16.067v-17.067h17.067h85.333H152.6h85.333h34.133H357.4h34.133h85.333h17.067V493.933z
				"/>
			<path d="M502.467-1H434.2H75.8H7.533C2.413-1-1,2.413-1,7.533v179.2v128c0,5.12,3.413,8.533,8.533,8.533h51.2h392.533h51.2
				c5.12,0,8.533-3.413,8.533-8.533v-0.853V186.733v-0.853V7.533C511,2.413,507.587-1,502.467-1z M425.68,16.067
				c0.459,89.849,19.06,150.64,50.714,171.347c-0.992,0.859-1.973,1.764-2.941,2.733c-26.173,26.881-30.063,92.462-30.628,116.053
				H67.175c-0.565-23.575-4.456-89.028-30.628-115.2c-1.153-1.153-2.324-2.222-3.51-3.219c32-20.349,50.821-81.328,51.283-171.714
				H425.68z M493.933,16.067v161.28c-30.72-9.387-50.347-70.827-51.2-161.28H493.933z M16.067,16.067h51.2
				c-0.853,90.453-20.48,151.893-51.2,161.28V16.067z M16.067,306.2V196.973c2.56,1.707,5.12,3.413,7.68,5.973
				c20.48,19.627,25.6,75.093,26.453,103.253H16.067z M493.933,306.2H459.8c0.853-28.16,5.973-83.627,26.453-103.253
				c2.56-2.56,5.12-5.12,7.68-5.973V306.2z"/>
		</g>
	</g>
</g>
<g>
</g>
<g>
</g>
<g>
</g>
<g>
</g>
<g>
</g>
<g>
</g>
<g>
</g>
<g>
</g>
<g>
</g>
<g>
</g>
<g>
</g>
<g>
</g>
<g>
</g>
<g>
</g>
<g>
</g>
</svg>
