<?xml version="1.0" encoding="iso-8859-1"?>
<!-- Generator: Adobe Illustrator 19.0.0, SVG Export Plug-In . SVG Version: 6.00 Build 0)  -->
<svg version="1.1" id="Capa_1" xmlns="http://www.w3.org/2000/svg" xmlns:xlink="http://www.w3.org/1999/xlink" x="0px" y="0px"
	 viewBox="0 0 512 512" style="enable-background:new 0 0 512 512;" xml:space="preserve">
<g>
	<g>
		<g>
			<path d="M256,0C114.615,0,0,114.615,0,256c0.16,141.318,114.682,255.84,256,256c141.385,0,256-114.615,256-256S397.385,0,256,0z
				 M256,494.933C124.041,494.933,17.067,387.959,17.067,256C17.215,124.102,124.102,17.215,256,17.067
				c131.959,0,238.933,106.974,238.933,238.933S387.959,494.933,256,494.933z"/>
			<path d="M199.783,131.537c2.778-1.256,4.674-3.899,4.975-6.933c0.301-3.034-1.04-5.998-3.517-7.775s-5.714-2.098-8.492-0.842
				c-34.066,15.407-61.356,42.694-76.767,76.758c-1.258,2.778-0.938,6.016,0.838,8.494s4.74,3.82,7.775,3.521
				c3.035-0.3,5.679-2.195,6.937-4.973C145.232,169.499,169.495,145.237,199.783,131.537z"/>
			<path d="M223.483,88.425c4.628-0.893,7.655-5.368,6.762-9.996c-0.893-4.628-5.368-7.655-9.996-6.762
				C145.217,86.562,86.564,145.22,71.675,220.254c-0.431,2.222,0.039,4.524,1.307,6.399s3.229,3.169,5.451,3.597
				c0.536,0.102,1.08,0.154,1.625,0.154c4.085-0.005,7.594-2.905,8.367-6.917C101.964,155.283,155.28,101.965,223.483,88.425z"/>
			<path d="M256,51.2c4.713,0,8.533-3.82,8.533-8.533s-3.82-8.533-8.533-8.533C133.523,34.27,34.27,133.523,34.133,256
				c0,4.713,3.82,8.533,8.533,8.533S51.2,260.713,51.2,256C51.329,142.946,142.946,51.329,256,51.2z"/>
			<path d="M312.217,380.463c-4.294,1.942-6.201,6.998-4.258,11.292s6.998,6.201,11.292,4.258
				c34.066-15.407,61.356-42.694,76.767-76.758c1.945-4.294,0.04-9.351-4.254-11.296s-9.351-0.04-11.296,4.254
				C366.768,342.501,342.505,366.763,312.217,380.463z"/>
			<path d="M288.517,423.575c-4.315,0.835-7.291,4.811-6.875,9.186c0.416,4.376,4.088,7.719,8.483,7.726
				c0.545,0,1.089-0.052,1.625-0.154c75.033-14.895,133.686-73.553,148.575-148.587c0.893-4.625-2.133-9.099-6.758-9.992
				c-4.625-0.893-9.099,2.133-9.992,6.758C410.037,356.717,356.72,410.035,288.517,423.575z"/>
			<path d="M469.333,247.467c-4.713,0-8.533,3.82-8.533,8.533c-0.129,113.054-91.746,204.671-204.8,204.8
				c-4.713,0-8.533,3.82-8.533,8.533s3.82,8.533,8.533,8.533C378.477,477.73,477.73,378.477,477.867,256
				C477.867,251.287,474.046,247.467,469.333,247.467z"/>
			<path d="M375.467,256c0-65.98-53.487-119.467-119.467-119.467C190.051,136.607,136.607,190.051,136.533,256
				c0,65.98,53.487,119.467,119.467,119.467S375.467,321.98,375.467,256z M153.6,256c0-56.554,45.846-102.4,102.4-102.4
				c56.528,0.063,102.337,45.872,102.4,102.4c0,56.554-45.846,102.4-102.4,102.4C199.446,358.4,153.6,312.554,153.6,256z"/>
			<path d="M281.6,256c0-14.138-11.462-25.6-25.6-25.6c-14.132,0.015-25.585,11.468-25.6,25.6c0,14.138,11.461,25.6,25.6,25.6
				S281.6,270.138,281.6,256z M247.467,256c0-4.713,3.82-8.533,8.533-8.533c4.711,0.005,8.529,3.822,8.533,8.533
				c0,4.713-3.82,8.533-8.533,8.533S247.467,260.713,247.467,256z"/>
		</g>
	</g>
</g>
<g>
</g>
<g>
</g>
<g>
</g>
<g>
</g>
<g>
</g>
<g>
</g>
<g>
</g>
<g>
</g>
<g>
</g>
<g>
</g>
<g>
</g>
<g>
</g>
<g>
</g>
<g>
</g>
<g>
</g>
</svg>
