<?xml version="1.0" encoding="iso-8859-1"?>
<!-- Generator: Adobe Illustrator 19.0.0, SVG Export Plug-In . SVG Version: 6.00 Build 0)  -->
<svg version="1.1" id="Capa_1" xmlns="http://www.w3.org/2000/svg" xmlns:xlink="http://www.w3.org/1999/xlink" x="0px" y="0px"
	 viewBox="0 0 503.607 503.607" style="enable-background:new 0 0 503.607 503.607;" xml:space="preserve">
<g>
	<g>
		<g>
			<path d="M485.375,110.558c-6.337-6.337-14.764-9.837-23.737-9.837c-8.964,0-17.4,3.5-23.737,9.837l-12.162,12.179l-56.427,62.518
				V41.967c0-4.633-3.752-8.393-8.393-8.393h-80.837l-3.156-26.188C276.415,3.173,272.839,0,268.592,0h-41.967
				c-2.401,0-4.692,1.032-6.278,2.82c-1.603,1.805-2.342,4.197-2.056,6.58l2.913,24.173h-39.52l2.919-24.173
				c0.285-2.384-0.462-4.776-2.056-6.58C180.951,1.032,178.668,0,176.259,0h-41.967c-4.239,0-7.823,3.173-8.335,7.386l-3.156,26.188
				H41.968c-4.642,0-8.393,3.76-8.393,8.393v318.955H16.788c-4.642,0-8.393,3.752-8.393,8.393v33.574
				c0,4.633,3.752,8.393,8.393,8.393h60.43l-10.011,82.923c-0.285,2.384,0.462,4.776,2.056,6.58c1.586,1.788,3.878,2.82,6.278,2.82
				h41.967c4.247,0,7.831-3.173,8.335-7.386l10.254-84.937h130.689l10.254,84.937c0.512,4.213,4.088,7.386,8.335,7.386h41.967
				c2.401,0,4.692-1.032,6.278-2.82c1.603-1.805,2.35-4.197,2.056-6.58l-10.011-82.923h60.433c4.642,0,8.393-3.76,8.393-8.393
				v-33.574c0-4.642-3.752-8.393-8.393-8.393h-16.787v-97.018l104.195-93.997l11.868-11.877c6.345-6.337,9.837-14.772,9.837-23.737
				C495.212,125.33,491.721,116.895,485.375,110.558z M110.063,486.82H85.009l9.123-75.537h25.054L110.063,486.82z M317.875,486.82
				H292.82l-9.123-75.537h25.054L317.875,486.82z M377.706,394.496h-61.42c-0.03,0-0.059-0.004-0.089-0.004h-41.967
				c-0.026,0-0.052,0.004-0.078,0.004H128.732c-0.026,0-0.052-0.004-0.078-0.004H86.687c-0.03,0-0.059,0.004-0.089,0.004H25.181
				v-16.787h352.525V394.496z M236.092,16.787h25.054l2.023,16.787h-25.054L236.092,16.787z M141.737,16.787H166.8l-2.031,16.787
				h-25.054L141.737,16.787z M352.525,360.918H50.361V50.361h79.885h41.967h58.457h41.967h79.888v153.493l-58.482,64.795
				c-0.625-0.035-1.254-0.058-1.889-0.058h-1.737c-8.242,0-30.149,0-30.149,24.828c0,17.081-27.371,25.801-27.631,25.877
				c-4.004,1.183-6.522,5.128-5.926,9.258c0.604,4.121,4.138,7.185,8.31,7.185h60.576c8.754,0,15.587-2.443,20.32-7.26
				c6.441-6.541,7.266-15.495,7.292-22.98l29.318-26.449V360.918z M292.154,285.377c8.091,0,14.202,5.817,14.202,13.522l0.034,3.089
				c0.084,5.363,0.193,12.045-2.434,14.714c-1.83,1.863-5.556,2.249-8.36,2.249h-29.889c6.404-6.354,11.348-14.756,11.348-25.533
				c0-6.245,0.562-8.041,13.362-8.041H292.154z M473.507,146.163l-11.558,11.583L320.203,285.801
				c-2.092-4.373-5.216-8.14-9.081-11.027l126.781-140.479l11.868-11.868c6.345-6.345,17.391-6.345,23.737,0
				c3.173,3.173,4.919,7.386,4.919,11.868S476.68,142.99,473.507,146.163z"/>
			<path d="M268.591,251.807v-92.332h8.393c3.483,0,6.606-2.149,7.848-5.414c1.234-3.257,0.336-6.941-2.275-9.258l-75.541-67.148
				c-3.181-2.82-7.965-2.82-11.146,0l-75.541,67.148c-2.602,2.317-3.508,6.001-2.266,9.258c1.234,3.265,4.356,5.414,7.839,5.414
				h8.394v92.332c0,4.633,3.752,8.393,8.393,8.393h41.967h33.574h41.967C264.839,260.201,268.591,256.441,268.591,251.807z
				 M201.443,95.165l53.466,47.524H147.976L201.443,95.165z M193.05,243.414V209.84h16.787v33.574H193.05z M251.804,243.414h-25.18
				v-41.967c0-4.642-3.752-8.393-8.393-8.393h-33.574c-4.642,0-8.393,3.752-8.393,8.393v41.967h-25.18V159.48h100.721V243.414z"/>
		</g>
	</g>
</g>
<g>
</g>
<g>
</g>
<g>
</g>
<g>
</g>
<g>
</g>
<g>
</g>
<g>
</g>
<g>
</g>
<g>
</g>
<g>
</g>
<g>
</g>
<g>
</g>
<g>
</g>
<g>
</g>
<g>
</g>
</svg>
